<?xml version="1.0" encoding="UTF-8"?>
<svg xmlns="http://www.w3.org/2000/svg" width="64" height="64" viewBox="0 0 64 64" stroke="currentColor" fill="none" stroke-width="3" stroke-linecap="round" stroke-linejoin="round">
  <!-- Ceiling / ventilation fan icon matching existing stroke-only style -->
  <!-- Central hub -->
  <circle cx="32" cy="32" r="6"/>
  <!-- Four blades -->
  <path d="M32 12c-2 0-4 2-4 4 0 3 4 8 4 8s4-5 4-8c0-2-2-4-4-4z"/>
  <path d="M52 32c0-2-2-4-4-4-3 0-8 4-8 4s5 4 8 4c2 0 4-2 4-4z"/>
  <path d="M32 52c2 0 4-2 4-4 0-3-4-8-4-8s-4 5-4 8c0 2 2 4 4 4z"/>
  <path d="M12 32c0 2 2 4 4 4 3 0 8-4 8-4s-5-4-8-4c-2 0-4 2-4 4z"/>
  <!-- Motion indication arcs -->
  <path d="M32 4v4"/>
  <path d="M60 32h-4"/>
  <path d="M32 60v-4"/>
  <path d="M4 32h4"/>
</svg>
